<svg width="343" height="44" viewBox="0 0 343 44" fill="none" xmlns="http://www.w3.org/2000/svg">
<rect width="343" height="44" rx="22" fill="#FD7513"/>
<path d="M143.664 26.716C142.878 26.716 142.164 26.578 141.522 26.302C140.88 26.026 140.328 25.636 139.866 25.132C139.41 24.622 139.068 24.022 138.84 23.332L140.955 22.549C141.225 23.125 141.6 23.599 142.08 23.971C142.566 24.337 143.112 24.52 143.718 24.52C144.36 24.52 144.87 24.385 145.248 24.115C145.632 23.845 145.824 23.452 145.824 22.936C145.824 22.582 145.71 22.288 145.482 22.054C145.26 21.814 144.957 21.61 144.573 21.442C144.195 21.268 143.766 21.1 143.286 20.938C142.824 20.782 142.359 20.608 141.891 20.416C141.423 20.224 140.994 19.99 140.604 19.714C140.214 19.432 139.899 19.078 139.659 18.652C139.425 18.226 139.308 17.704 139.308 17.086C139.308 16.468 139.473 15.901 139.803 15.385C140.133 14.869 140.61 14.458 141.234 14.152C141.864 13.84 142.626 13.684 143.52 13.684C144.252 13.684 144.9 13.81 145.464 14.062C146.034 14.308 146.505 14.644 146.877 15.07C147.249 15.496 147.507 15.979 147.651 16.519L145.563 17.212C145.395 16.834 145.137 16.519 144.789 16.267C144.447 16.009 143.982 15.88 143.394 15.88C142.842 15.88 142.413 15.988 142.107 16.204C141.801 16.42 141.648 16.726 141.648 17.122C141.648 17.392 141.75 17.623 141.954 17.815C142.164 18.001 142.443 18.169 142.791 18.319C143.145 18.469 143.544 18.622 143.988 18.778C144.486 18.946 144.981 19.138 145.473 19.354C145.971 19.564 146.421 19.822 146.823 20.128C147.231 20.434 147.558 20.815 147.804 21.271C148.05 21.721 148.173 22.273 148.173 22.927C148.173 23.731 147.972 24.415 147.57 24.979C147.174 25.543 146.637 25.975 145.959 26.275C145.281 26.569 144.516 26.716 143.664 26.716ZM155.513 26.716C154.457 26.716 153.554 26.521 152.804 26.131C152.06 25.735 151.49 25.162 151.094 24.412C150.704 23.662 150.509 22.756 150.509 21.694V13.9H152.84V21.694C152.84 22.648 153.053 23.35 153.479 23.8C153.905 24.25 154.583 24.475 155.513 24.475C156.101 24.475 156.593 24.382 156.989 24.196C157.385 24.01 157.682 23.713 157.88 23.305C158.078 22.891 158.177 22.354 158.177 21.694V13.9H160.517V21.694C160.517 22.582 160.385 23.344 160.121 23.98C159.863 24.616 159.503 25.138 159.041 25.546C158.585 25.948 158.054 26.245 157.448 26.437C156.842 26.623 156.197 26.716 155.513 26.716ZM163.414 26.5V13.9H168.85C169.876 13.9 170.686 14.065 171.28 14.395C171.874 14.719 172.297 15.142 172.549 15.664C172.801 16.18 172.927 16.72 172.927 17.284C172.927 17.848 172.804 18.364 172.558 18.832C172.312 19.294 171.91 19.651 171.352 19.903C171.808 20.065 172.183 20.299 172.477 20.605C172.777 20.905 172.996 21.247 173.134 21.631C173.278 22.009 173.35 22.393 173.35 22.783C173.35 23.227 173.275 23.671 173.125 24.115C172.981 24.553 172.744 24.952 172.414 25.312C172.084 25.672 171.646 25.96 171.1 26.176C170.56 26.392 169.894 26.5 169.102 26.5H163.414ZM165.745 24.313H169.255C169.705 24.313 170.056 24.235 170.308 24.079C170.566 23.923 170.746 23.728 170.848 23.494C170.956 23.254 171.01 23.017 171.01 22.783C171.01 22.495 170.947 22.222 170.821 21.964C170.701 21.7 170.476 21.484 170.146 21.316C169.822 21.148 169.351 21.064 168.733 21.064H165.745V24.313ZM165.745 18.967H168.562C169.246 18.967 169.75 18.835 170.074 18.571C170.404 18.301 170.569 17.944 170.569 17.5C170.569 17.272 170.527 17.05 170.443 16.834C170.359 16.612 170.197 16.429 169.957 16.285C169.717 16.141 169.363 16.069 168.895 16.069H165.745V18.967ZM181.567 26.716L178.345 19.696C178.303 19.606 178.258 19.501 178.21 19.381C178.162 19.261 178.12 19.141 178.084 19.021C178.09 19.117 178.093 19.231 178.093 19.363C178.099 19.495 178.102 19.612 178.102 19.714V26.5H175.771V13.9H178.102L181.297 21.046C181.357 21.178 181.411 21.31 181.459 21.442C181.513 21.568 181.564 21.7 181.612 21.838C181.66 21.7 181.708 21.565 181.756 21.433C181.804 21.301 181.855 21.172 181.909 21.046L185.167 13.9H187.354V26.5H185.023V19.696C185.023 19.588 185.023 19.468 185.023 19.336C185.029 19.204 185.032 19.096 185.032 19.012C184.996 19.12 184.951 19.237 184.897 19.363C184.849 19.483 184.801 19.594 184.753 19.696L181.567 26.716ZM190.308 26.5V13.9H192.639V26.5H190.308ZM198.353 26.5V16.141H194.78V13.9H204.275V16.141H200.684V26.5H198.353Z" fill="white"/>
</svg>
